<?xml version="1.0" standalone="no"?>
<!DOCTYPE svg PUBLIC "-//W3C//DTD SVG 20010904//EN"
 "http://www.w3.org/TR/2001/REC-SVG-20010904/DTD/svg10.dtd">
<svg version="1.0" xmlns="http://www.w3.org/2000/svg"
 width="238.000000pt" height="210.000000pt" viewBox="0 0 238.000000 210.000000"
 preserveAspectRatio="xMidYMid meet">

<g transform="translate(0.000000,210.000000) scale(0.100000,-0.100000)"
fill="#6a1891" stroke="none">
<path d="M920 2047 c-48 -15 -113 -83 -128 -133 -8 -29 -12 -143 -12 -388 l0
-346 357 0 c341 0 359 1 400 21 51 25 96 76 112 128 7 26 11 154 11 385 l0
346 -352 -1 c-229 -1 -365 -5 -388 -12z m253 -257 c26 -5 67 -10 90 -10 40 0
43 3 66 45 13 25 26 43 29 41 2 -3 -7 -26 -21 -51 -24 -43 -25 -48 -12 -84 7
-21 21 -53 29 -70 16 -30 19 -31 81 -31 37 0 65 -4 65 -10 0 -6 -29 -10 -67
-10 l-68 0 -32 -48 c-18 -26 -33 -53 -33 -60 0 -7 14 -36 30 -65 31 -55 40
-85 17 -53 -11 15 -29 18 -127 18 -90 0 -116 -3 -125 -15 -9 -12 -11 -9 -11
17 0 18 -19 71 -43 119 -39 79 -46 87 -72 87 -16 0 -29 5 -29 10 0 6 13 10 29
10 31 0 71 41 121 123 22 37 22 40 6 73 -23 49 -19 56 7 12 18 -31 30 -39 70
-48z"/>
<path d="M1087 1728 c-20 -29 -44 -63 -54 -76 l-16 -23 43 3 c36 2 48 9 72 39
l30 37 -19 37 -19 36 -37 -53z"/>
<path d="M1140 1771 c0 -17 50 -61 69 -61 11 0 26 -3 35 -6 10 -4 20 5 31 25
18 37 18 37 -72 45 -35 3 -63 2 -63 -3z"/>
<path d="M1286 1722 c-23 -45 -5 -92 35 -92 16 0 29 1 29 3 0 1 -11 28 -24 61
l-24 59 -16 -31z"/>
<path d="M1143 1665 l-22 -34 39 1 c22 0 40 5 40 10 0 6 -7 7 -16 4 -12 -5
-15 -2 -10 10 3 8 6 20 6 25 0 5 8 4 19 -2 10 -7 26 -9 36 -5 25 9 15 16 -31
20 -36 4 -42 1 -61 -29z"/>
<path d="M1250 1650 c0 -11 6 -20 14 -20 9 0 12 7 9 20 -3 11 -9 20 -14 20 -5
0 -9 -9 -9 -20z"/>
<path d="M1210 1650 c0 -5 5 -10 11 -10 5 0 7 5 4 10 -3 6 -8 10 -11 10 -2 0
-4 -4 -4 -10z"/>
<path d="M1038 1558 c16 -29 35 -70 42 -90 6 -21 15 -38 19 -38 4 0 17 18 30
40 l22 39 -26 51 c-25 49 -26 50 -71 50 l-45 0 29 -52z"/>
<path d="M1120 1603 c1 -5 9 -23 19 -41 15 -30 19 -32 30 -18 11 13 11 20 -3
41 -15 23 -47 35 -46 18z"/>
<path d="M1176 1597 c3 -10 9 -15 12 -12 3 3 0 11 -7 18 -10 9 -11 8 -5 -6z"/>
<path d="M1250 1594 c0 -8 5 -12 10 -9 6 3 10 10 10 16 0 5 -4 9 -10 9 -5 0
-10 -7 -10 -16z"/>
<path d="M1274 1585 c-14 -21 -14 -27 -1 -45 14 -21 15 -20 46 24 l30 46 -29
0 c-20 0 -35 -8 -46 -25z"/>
<path d="M1208 1573 c6 -2 18 -2 25 0 6 3 1 5 -13 5 -14 0 -19 -2 -12 -5z"/>
<path d="M1200 1553 c-16 -6 -30 -23 -30 -35 0 -5 23 -8 50 -8 28 0 50 3 50 8
-1 25 -42 45 -70 35z"/>
<path d="M1153 1488 c-6 -7 -17 -26 -26 -43 l-15 -30 108 0 109 0 -22 40 c-22
39 -24 40 -83 43 -41 2 -64 -1 -71 -10z"/>
<path d="M1750 961 c-118 -38 -190 -137 -190 -261 0 -106 53 -194 145 -243 53
-29 174 -30 225 -3 68 36 70 40 70 141 0 57 -4 95 -12 103 -18 18 -162 16
-178 -3 -25 -30 -4 -45 60 -45 l60 0 0 -64 0 -64 -50 -17 c-197 -65 -343 187
-197 340 68 70 143 82 230 36 48 -25 58 -27 74 -16 24 19 9 43 -46 74 -46 25
-146 37 -191 22z"/>
<path d="M446 944 c-9 -24 -7 -477 3 -492 4 -8 19 -12 32 -10 l24 3 5 175 5
175 85 -165 c67 -130 90 -166 107 -168 20 -3 33 18 110 170 l88 173 5 -180 5
-180 25 0 25 0 0 255 0 255 -25 0 c-23 0 -35 -20 -124 -202 -55 -112 -102
-203 -105 -203 -4 0 -52 92 -109 205 -90 181 -105 205 -126 205 -13 0 -27 -7
-30 -16z"/>
<path d="M1161 724 c-56 -131 -101 -247 -99 -258 2 -13 12 -22 26 -24 19 -3
27 6 48 52 l25 56 125 0 124 0 15 -37 c23 -59 31 -68 56 -68 17 0 25 6 27 21
2 11 -42 126 -97 255 -133 314 -117 314 -250 3z m173 12 c26 -60 46 -113 46
-117 0 -5 -43 -9 -96 -9 -87 0 -96 2 -90 18 18 47 91 220 93 218 1 -1 22 -51
47 -110z"/>
<path d="M1370 176 l0 -104 46 2 c32 1 50 7 60 21 19 25 18 75 -2 104 -14 19
-23 22 -50 18 -33 -6 -34 -5 -34 29 0 19 -4 34 -10 34 -6 0 -10 -41 -10 -104z
m90 -2 c20 -52 -19 -104 -55 -74 -18 15 -20 71 -3 88 20 20 48 14 58 -14z"/>
<path d="M810 255 c-7 -9 -10 -27 -7 -45 4 -19 0 -40 -10 -58 -20 -34 -13 -58
22 -74 20 -9 34 -9 56 -1 17 7 31 7 35 2 10 -17 25 -10 15 9 -5 9 -7 30 -4 45
3 16 1 27 -6 27 -6 0 -11 -7 -11 -15 0 -22 -16 -18 -33 9 -15 22 -15 25 3 41
23 20 26 45 8 63 -17 17 -53 15 -68 -3z m55 -16 c4 -5 -1 -19 -11 -30 -16 -18
-19 -18 -27 -4 -17 31 20 65 38 34z m-7 -109 l22 -30 -26 -6 c-34 -9 -59 19
-43 47 13 26 22 24 47 -11z"/>
<path d="M1013 204 c3 -11 13 -45 22 -76 9 -32 20 -58 25 -58 5 0 16 26 26 58
l17 57 19 -57 c11 -32 23 -58 28 -58 4 0 15 28 25 62 9 34 19 68 22 75 3 7 0
13 -6 13 -13 0 -15 -4 -32 -70 l-11 -45 -17 53 c-9 30 -20 54 -26 55 -5 1 -17
-20 -26 -48 -17 -51 -21 -50 -37 14 -4 19 -14 37 -21 39 -9 3 -11 -2 -8 -14z"/>
<path d="M1240 200 c-27 -27 -27 -83 0 -110 30 -30 90 -24 90 8 0 12 -3 13
-12 4 -17 -17 -44 -15 -62 4 -26 26 -18 34 34 34 55 0 64 15 34 58 -19 28 -57
29 -84 2z m70 -20 c10 -18 8 -20 -30 -20 -38 0 -40 2 -30 20 6 11 19 20 30 20
11 0 24 -9 30 -20z"/>
</g>
</svg>
