<?xml version="1.0" standalone="no"?>
<!DOCTYPE svg PUBLIC "-//W3C//DTD SVG 20010904//EN"
 "http://www.w3.org/TR/2001/REC-SVG-20010904/DTD/svg10.dtd">
<svg version="1.0" xmlns="http://www.w3.org/2000/svg"
 width="600.000000pt" height="600.000000pt" viewBox="0 0 600.000000 600.000000"
 preserveAspectRatio="xMidYMid meet">
<metadata>
Created by potrace 1.14, written by Peter Selinger 2001-2017
</metadata>
<g transform="translate(0.000000,600.000000) scale(0.100000,-0.100000)"
fill="#000000" stroke="none">
<path d="M1830 5790 c0 -6 -30 -10 -70 -10 -40 0 -70 -4 -70 -10 0 -5 -20 -10
-45 -10 -33 0 -45 -4 -45 -15 0 -10 -10 -15 -30 -15 -16 0 -30 -4 -30 -10 0
-5 -13 -10 -30 -10 -16 0 -30 -4 -30 -10 0 -5 -16 -10 -35 -10 -19 0 -35 -4
-35 -10 0 -5 -9 -10 -20 -10 -11 0 -20 -4 -20 -10 0 -5 -13 -10 -28 -10 -16 0
-34 -8 -42 -20 -8 -11 -25 -20 -37 -20 -13 0 -23 -4 -23 -10 0 -5 -9 -10 -20
-10 -11 0 -20 -4 -20 -10 0 -5 -9 -10 -20 -10 -11 0 -20 -5 -20 -11 0 -15 -26
-39 -42 -39 -8 0 -20 -9 -28 -20 -8 -11 -19 -20 -25 -20 -6 0 -17 -9 -25 -20
-8 -11 -20 -20 -28 -20 -15 0 -82 -65 -82 -80 0 -5 -4 -10 -10 -10 -5 0 -10
-9 -10 -20 0 -13 7 -20 20 -20 11 0 20 -4 20 -10 0 -5 9 -10 20 -10 11 0 20
-4 20 -10 0 -5 9 -10 20 -10 11 0 20 -4 20 -10 0 -5 10 -10 23 -10 12 0 29 -9
37 -20 8 -11 20 -20 28 -20 15 0 62 -45 62 -60 0 -5 8 -10 18 -10 10 0 24 -9
32 -20 8 -11 18 -20 22 -20 15 0 98 -89 98 -105 0 -8 5 -15 10 -15 6 0 10 -6
10 -13 0 -7 9 -19 20 -27 11 -8 20 -20 20 -28 0 -20 32 -50 38 -34 2 6 14 12
26 12 12 0 28 9 36 20 8 11 20 20 28 20 16 0 42 24 42 39 0 6 9 11 19 11 11 0
21 6 24 13 2 7 8 8 13 3 5 -5 4 -11 -3 -13 -7 -3 -13 -9 -13 -14 0 -10 -146
-159 -155 -159 -8 0 -55 -47 -55 -55 0 -10 -149 -155 -160 -155 -5 0 -10 -9
-10 -21 0 -11 -18 -38 -40 -59 -22 -21 -40 -45 -40 -52 0 -7 -9 -20 -20 -28
-11 -8 -20 -22 -20 -32 0 -10 -4 -18 -10 -18 -5 0 -10 -7 -10 -15 0 -8 -4 -15
-10 -15 -5 0 -10 -9 -10 -20 0 -11 -5 -20 -11 -20 -16 0 -39 -26 -39 -44 0 -9
-4 -16 -10 -16 -5 0 -10 -9 -10 -20 0 -11 -4 -20 -10 -20 -5 0 -10 -9 -10 -20
0 -11 -4 -20 -10 -20 -5 0 -10 -7 -10 -15 0 -8 -4 -15 -10 -15 -5 0 -10 -9
-10 -20 0 -11 -4 -20 -10 -20 -5 0 -10 -9 -10 -20 0 -11 -4 -20 -10 -20 -5 0
-10 -13 -10 -30 0 -16 -4 -30 -10 -30 -5 0 -10 -11 -10 -25 0 -16 -6 -25 -15
-25 -8 0 -15 -9 -15 -20 0 -11 -4 -20 -10 -20 -5 0 -10 -13 -10 -30 0 -16 -4
-30 -10 -30 -5 0 -10 -9 -10 -20 0 -11 -4 -20 -10 -20 -5 0 -10 -16 -10 -35 0
-19 -4 -35 -10 -35 -5 0 -10 -13 -10 -30 0 -16 -4 -30 -10 -30 -5 0 -10 -18
-10 -40 0 -22 -4 -40 -10 -40 -5 0 -10 -20 -10 -45 0 -25 -4 -45 -10 -45 -5 0
-10 -22 -10 -50 0 -27 -4 -50 -10 -50 -6 0 -10 -28 -10 -65 0 -37 -4 -65 -10
-65 -6 0 -10 -45 -10 -115 0 -96 -3 -115 -15 -115 -12 0 -15 -19 -15 -115 0
-96 3 -115 15 -115 12 0 15 -19 15 -115 0 -70 4 -115 10 -115 6 0 10 -28 10
-65 0 -37 4 -65 10 -65 6 0 10 -25 10 -55 0 -30 5 -55 10 -55 6 0 10 -18 10
-40 0 -22 5 -40 10 -40 6 0 10 -18 10 -40 0 -22 5 -40 10 -40 6 0 10 -16 10
-35 0 -19 5 -35 10 -35 6 0 10 -13 10 -30 0 -16 5 -30 10 -30 6 0 10 -13 10
-30 0 -16 5 -30 10 -30 6 0 10 -11 10 -25 0 -14 5 -25 10 -25 6 0 10 -13 10
-30 0 -20 5 -30 15 -30 8 0 15 -9 15 -20 0 -11 5 -20 10 -20 6 0 10 -9 10 -20
0 -11 5 -20 10 -20 6 0 10 -11 10 -25 0 -14 5 -25 10 -25 6 0 10 -9 10 -20 0
-11 5 -20 10 -20 6 0 10 -9 10 -20 0 -11 5 -20 10 -20 6 0 10 -8 10 -18 0 -10
9 -24 20 -32 11 -8 20 -25 20 -37 0 -13 5 -23 10 -23 6 0 10 -9 10 -20 0 -11
5 -20 11 -20 15 0 39 -26 39 -42 0 -8 9 -20 20 -28 11 -8 20 -22 20 -32 0 -10
5 -18 10 -18 6 0 10 -6 10 -13 0 -7 9 -19 20 -27 11 -8 20 -20 20 -28 0 -13
43 -62 55 -62 13 0 55 -50 55 -65 0 -8 5 -15 10 -15 6 0 10 -5 10 -10 0 -11
125 -140 135 -140 10 0 55 -49 55 -60 0 -5 9 -10 20 -10 13 0 20 -7 20 -20 0
-11 -4 -20 -10 -20 -5 0 -10 5 -10 10 0 6 -4 10 -10 10 -5 0 -10 -9 -10 -20 0
-11 -4 -20 -10 -20 -6 0 -10 -70 -10 -190 0 -120 4 -190 10 -190 6 0 10 -18
10 -40 0 -22 5 -40 10 -40 6 0 10 -16 10 -35 0 -19 5 -35 10 -35 6 0 10 -13
10 -30 0 -16 5 -30 10 -30 6 0 10 -9 10 -20 0 -11 5 -20 10 -20 6 0 10 -9 10
-20 0 -11 5 -20 10 -20 6 0 10 -9 10 -20 0 -11 5 -20 10 -20 6 0 10 -11 10
-25 0 -14 5 -25 11 -25 14 0 39 -26 39 -40 0 -24 30 -40 74 -40 39 0 46 3 46
20 0 11 5 20 10 20 6 0 10 9 10 20 0 11 5 20 10 20 6 0 10 11 10 25 0 14 5 25
11 25 14 0 39 26 39 40 0 6 32 42 70 80 39 38 70 74 70 80 0 5 5 10 11 10 6 0
24 14 39 30 15 17 33 30 40 30 6 0 33 23 60 50 27 28 53 50 59 50 6 0 11 7 11
15 0 8 5 15 10 15 6 0 10 9 10 20 0 11 5 20 10 20 6 0 10 9 10 20 0 11 5 20
10 20 6 0 10 42 10 105 0 63 -4 105 -10 105 -5 0 -10 5 -10 10 0 6 27 10 60
10 33 0 60 4 60 10 0 6 15 10 33 10 21 0 38 7 47 20 8 11 22 20 32 20 10 0 18
6 18 13 0 7 9 19 20 27 11 8 20 21 20 30 0 9 9 22 20 30 12 8 20 26 20 42 0
18 5 28 15 28 10 0 15 11 15 35 0 19 5 35 10 35 6 0 10 9 10 20 0 11 5 20 10
20 6 0 10 9 10 20 0 11 5 20 10 20 6 0 10 9 10 20 0 11 5 20 10 20 6 0 10 9
10 20 0 11 5 20 10 20 6 0 10 10 10 23 0 12 9 29 20 37 11 8 20 20 20 28 0 13
43 62 55 62 8 0 55 47 55 55 0 4 18 24 40 45 44 42 52 70 20 70 -11 0 -20 5
-20 10 0 6 -13 10 -30 10 -16 0 -30 5 -30 10 0 6 -16 10 -35 10 -19 0 -35 5
-35 10 0 6 -22 10 -50 10 -38 0 -50 4 -50 15 0 13 -26 15 -170 15 -144 0 -170
-2 -170 -15 0 -11 -12 -15 -50 -15 -27 0 -50 -4 -50 -10 0 -5 -16 -10 -35 -10
-19 0 -35 -4 -35 -10 0 -5 -13 -10 -30 -10 -16 0 -30 -4 -30 -10 0 -5 -9 -10
-20 -10 -11 0 -20 -4 -20 -10 0 -5 -9 -10 -20 -10 -11 0 -20 -4 -20 -10 0 -5
-11 -10 -25 -10 -23 0 -25 -4 -25 -45 0 -25 5 -45 10 -45 6 0 10 -4 10 -10 0
-5 -13 -10 -30 -10 -28 0 -30 3 -30 35 0 19 -4 35 -10 35 -5 0 -10 14 -10 30
0 17 -4 30 -10 30 -5 0 -10 25 -10 55 0 30 -4 55 -10 55 -6 0 -10 77 -10 210
0 133 4 210 10 210 6 0 10 18 10 40 0 22 5 40 10 40 6 0 10 18 10 40 0 22 5
40 10 40 6 0 10 16 10 35 0 19 5 35 10 35 6 0 10 9 10 20 0 11 5 20 10 20 6 0
10 9 10 20 0 11 5 20 10 20 6 0 10 9 10 20 0 15 7 20 25 20 19 0 25 5 25 21 0
12 14 34 30 49 17 15 30 33 30 40 0 6 18 29 40 50 22 21 40 48 40 59 0 12 5
21 11 21 6 0 17 6 25 14 11 12 14 57 14 230 0 137 -4 216 -10 216 -5 0 -10 23
-10 50 0 38 -4 50 -15 50 -10 0 -15 11 -15 35 0 19 -4 35 -10 35 -5 0 -10 14
-10 30 0 17 -4 30 -10 30 -5 0 -10 9 -10 20 0 11 5 20 10 20 6 0 10 -9 10 -20
0 -11 5 -20 10 -20 6 0 10 -9 10 -20 0 -11 7 -20 15 -20 8 0 15 -9 15 -20 0
-11 5 -20 10 -20 6 0 10 -11 10 -25 0 -14 5 -25 10 -25 6 0 10 -13 10 -30 0
-16 5 -30 10 -30 6 0 10 -18 10 -40 0 -22 5 -40 10 -40 6 0 10 -25 10 -55 0
-30 5 -55 10 -55 6 0 10 -73 10 -200 0 -127 -4 -200 -10 -200 -5 0 -10 -22
-10 -50 0 -27 -4 -50 -10 -50 -5 0 -10 -20 -10 -45 0 -43 1 -45 30 -45 17 0
30 5 30 10 0 6 38 10 95 10 57 0 95 4 95 10 0 6 25 10 55 10 42 0 55 3 55 15
0 10 10 15 30 15 17 0 30 5 30 10 0 6 14 10 30 10 17 0 30 5 30 10 0 6 16 10
35 10 19 0 35 5 35 10 0 6 9 10 20 10 11 0 20 5 20 10 0 6 9 10 20 10 11 0 20
5 20 10 0 6 8 10 18 10 10 0 24 9 32 20 8 11 25 20 37 20 13 0 23 5 23 10 0 6
9 10 20 10 11 0 20 5 20 10 0 15 67 80 82 80 8 0 20 9 28 20 8 11 18 20 22 20
12 0 98 88 98 100 0 5 5 10 10 10 6 0 10 7 10 16 0 9 13 29 30 44 16 15 30 33
30 40 0 14 25 40 39 40 6 0 11 11 11 25 0 14 5 25 10 25 6 0 10 9 10 20 0 11
5 20 10 20 6 0 10 9 10 20 0 11 5 20 10 20 6 0 10 9 10 20 0 11 5 20 10 20 6
0 10 9 10 20 0 11 5 20 10 20 6 0 10 16 10 35 0 19 5 35 10 35 6 0 10 14 10
30 0 17 5 30 10 30 6 0 10 18 10 40 0 22 5 40 10 40 6 0 10 35 10 85 0 69 3
85 15 85 12 0 15 18 15 105 0 63 4 105 10 105 6 0 10 -30 10 -70 0 -40 4 -70
10 -70 6 0 10 -42 10 -105 0 -63 -4 -105 -10 -105 -6 0 -10 -32 -10 -75 0 -43
-4 -75 -10 -75 -5 0 -10 -20 -10 -45 0 -33 -4 -45 -15 -45 -10 0 -15 -10 -15
-30 0 -16 -4 -30 -10 -30 -5 0 -10 -13 -10 -30 0 -16 -4 -30 -10 -30 -5 0 -10
-9 -10 -20 0 -11 -4 -20 -10 -20 -5 0 -10 -11 -10 -25 0 -14 -4 -25 -10 -25
-5 0 -10 -9 -10 -20 0 -11 -4 -20 -10 -20 -5 0 -10 -4 -10 -10 0 -5 8 -10 18
-10 10 0 24 -9 32 -20 8 -11 22 -20 32 -20 10 0 18 -4 18 -10 0 -5 11 -10 24
-10 13 0 27 -6 29 -12 4 -10 8 -9 17 2 9 11 13 12 17 3 2 -7 13 -13 24 -13 10
0 19 -7 19 -15 0 -8 8 -15 18 -15 10 0 24 -9 32 -20 8 -11 25 -20 37 -20 13 0
23 -4 23 -10 0 -5 8 -10 18 -10 10 0 24 -9 32 -20 8 -11 21 -20 30 -20 9 0 22
-9 30 -20 8 -11 22 -20 32 -20 10 0 18 -4 18 -10 0 -5 5 -10 11 -10 14 0 39
-25 39 -39 0 -6 7 -11 16 -11 9 0 29 -13 44 -30 15 -16 34 -30 42 -30 7 0 20
-9 28 -20 8 -11 20 -20 27 -20 7 0 13 -4 13 -10 0 -5 7 -10 15 -10 15 0 65
-42 65 -55 0 -13 70 -75 85 -75 8 0 15 -4 15 -10 0 -5 5 -10 10 -10 11 0 100
-85 100 -95 0 -7 88 -95 95 -95 13 0 115 -111 115 -125 0 -17 83 -105 100
-105 5 0 10 -9 10 -20 0 -13 7 -20 20 -20 11 0 20 -4 20 -10 0 -6 32 -10 75
-10 43 0 75 4 75 10 0 6 7 10 15 10 20 0 85 65 85 85 0 8 5 15 10 15 6 0 10
32 10 75 0 43 -4 75 -10 75 -5 0 -10 8 -10 18 0 10 -9 24 -20 32 -11 8 -20 22
-20 32 0 10 -4 18 -10 18 -5 0 -10 5 -10 10 0 11 -45 60 -55 60 -10 0 -135
129 -135 140 0 5 -4 10 -10 10 -5 0 -10 9 -10 20 0 13 -7 20 -20 20 -12 0 -48
28 -85 65 -62 62 -77 85 -55 85 6 0 10 -5 10 -10 0 -15 47 -60 62 -60 8 0 20
-9 28 -20 8 -11 19 -20 25 -20 6 0 17 -9 25 -20 8 -11 20 -20 28 -20 15 0 62
-45 62 -60 0 -5 14 -10 30 -10 20 0 30 5 30 15 0 8 9 15 20 15 21 0 110 81
110 101 0 6 14 24 30 39 17 15 30 33 30 39 0 6 7 11 15 11 8 0 15 7 15 16 0 9
14 29 30 44 17 15 30 35 30 44 0 9 5 16 10 16 6 0 10 8 10 18 0 10 9 24 20 32
11 8 20 25 20 37 0 13 5 23 10 23 6 0 10 9 10 20 0 11 5 20 10 20 6 0 10 14
10 30 0 17 5 30 10 30 6 0 10 9 10 20 0 11 7 20 15 20 10 0 15 11 15 35 0 19
5 35 10 35 6 0 10 14 10 30 0 17 5 30 10 30 6 0 10 18 10 40 0 22 5 40 10 40
6 0 10 25 10 55 0 30 5 55 10 55 6 0 10 83 10 230 0 147 -4 230 -10 230 -5 0
-10 25 -10 55 0 30 -4 55 -10 55 -5 0 -10 18 -10 40 0 22 -4 40 -10 40 -5 0
-10 16 -10 35 0 19 -4 35 -10 35 -5 0 -10 14 -10 30 0 20 -5 30 -15 30 -10 0
-15 10 -15 30 0 17 -4 30 -10 30 -5 0 -10 9 -10 20 0 11 -4 20 -10 20 -5 0
-10 11 -10 25 0 14 -4 25 -10 25 -5 0 -10 9 -10 20 0 11 -4 20 -10 20 -5 0
-10 8 -10 18 0 10 -9 24 -20 32 -11 8 -20 22 -20 32 0 10 -4 18 -10 18 -5 0
-10 7 -10 15 0 8 -4 15 -10 15 -5 0 -10 7 -10 16 0 15 -23 44 -35 44 -11 0
-35 28 -35 40 0 7 -13 25 -30 40 -17 15 -30 31 -30 34 0 10 -88 96 -98 96 -4
0 -14 9 -22 20 -8 11 -21 20 -28 20 -8 0 -27 14 -42 30 -15 17 -35 30 -44 30
-9 0 -16 5 -16 11 0 17 -27 39 -47 39 -10 0 -25 9 -33 20 -8 11 -22 20 -32 20
-10 0 -18 5 -18 10 0 6 -9 10 -20 10 -11 0 -20 5 -20 10 0 6 -9 10 -20 10 -11
0 -20 5 -20 10 0 6 -11 10 -25 10 -14 0 -25 5 -25 10 0 6 -13 10 -30 10 -16 0
-30 5 -30 10 0 6 -9 10 -20 10 -11 0 -20 7 -20 15 0 10 -10 15 -30 15 -16 0
-30 5 -30 10 0 6 -20 10 -45 10 -25 0 -45 5 -45 10 0 6 -22 10 -50 10 -27 0
-50 5 -50 10 0 6 -28 10 -65 10 -58 0 -65 2 -65 20 0 19 7 20 125 20 77 0 125
4 125 10 0 6 -9 10 -20 10 -11 0 -20 5 -20 10 0 6 -9 10 -20 10 -11 0 -20 5
-20 10 0 6 -9 10 -20 10 -11 0 -20 5 -20 10 0 6 -16 10 -35 10 -24 0 -35 5
-35 15 0 10 -10 15 -30 15 -16 0 -30 5 -30 10 0 6 -9 10 -20 10 -11 0 -20 5
-20 10 0 6 -20 10 -45 10 -25 0 -45 5 -45 10 0 6 -13 10 -30 10 -16 0 -30 5
-30 10 0 6 -18 10 -40 10 -22 0 -40 5 -40 10 0 6 -25 10 -55 10 -30 0 -55 5
-55 10 0 6 -32 10 -75 10 -43 0 -75 4 -75 10 0 6 -48 10 -125 10 -77 0 -125 4
-125 10 0 6 -48 10 -125 10 -77 0 -125 -4 -125 -10 0 -6 -41 -10 -104 -10 -74
0 -106 -4 -110 -12 -5 -10 -7 -10 -12 0 -3 6 -12 12 -20 12 -8 0 -14 5 -14 10
0 6 -9 10 -20 10 -11 0 -20 5 -20 11 0 16 -26 39 -44 39 -9 0 -16 5 -16 10 0
6 -9 10 -20 10 -11 0 -20 5 -20 10 0 6 -9 10 -20 10 -11 0 -20 5 -20 10 0 6
-11 10 -25 10 -14 0 -25 5 -25 10 0 6 -9 10 -20 10 -11 0 -20 5 -20 10 0 6
-13 10 -30 10 -16 0 -30 5 -30 10 0 6 -16 10 -35 10 -19 0 -35 5 -35 10 0 6
-13 10 -30 10 -20 0 -30 5 -30 15 0 11 -12 15 -50 15 -27 0 -50 5 -50 10 0 6
-28 10 -65 10 -37 0 -65 4 -65 10 0 6 -60 10 -160 10 -100 0 -160 -4 -160 -10z
m-120 -760 c0 -5 -4 -10 -10 -10 -5 0 -10 5 -10 10 0 6 5 10 10 10 6 0 10 -4
10 -10z m330 -3500 c0 -5 -4 -10 -10 -10 -5 0 -10 5 -10 10 0 6 5 10 10 10 6
0 10 -4 10 -10z m-420 -610 c0 -5 -4 -10 -10 -10 -5 0 -10 5 -10 10 0 6 5 10
10 10 6 0 10 -4 10 -10z"/>
</g>
</svg>
